<?xml version="1.0" encoding="utf-8"?><svg id="Calque_1" data-name="Calque 1" xmlns="http://www.w3.org/2000/svg" viewBox="0 0 594.5 573"><defs><style>.cls-1{fill:#115385;}.cls-2{fill:#d22a25;}</style></defs><title>lb-color</title><path class="cls-1" d="M89,0h48V309H299.5v45H89Z"/><path class="cls-2" d="M348.5,0h123C533,0,579,28.5,579,88.5c0,40.5-25,66-61,78v1c42.5,3,76.5,40.5,76.5,88C594.5,319,539,354,470,354H348.5Zm48,147H462c36.5,0,66-14.5,66-53,0-28-17.5-52-56-52H396.5Zm0,165H467c29,0,76.5-10,76.5-60,0-42-29.5-63-76-63h-71Z"/><path class="cls-1" d="M505.5,573h-48V264H295V219H505.5Z"/><path class="cls-2" d="M246,573H123c-61.5,0-107.5-28.5-107.5-88.5,0-40.5,25-66,61-78v-1C34,402.5,0,365,0,317.5,0,254,55.5,219,124.5,219H246ZM198,426H132.5c-36.5,0-66,14.5-66,53,0,28,17.5,52,56,52H198Zm0-165H127.5c-29,0-76.5,10-76.5,60,0,42,29.5,63,76,63h71Z"/></svg>